<?xml version="1.0" encoding="UTF-8"?>
<!DOCTYPE svg PUBLIC "-//W3C//DTD SVG 1.1//EN" "http://www.w3.org/Graphics/SVG/1.1/DTD/svg11.dtd">
<!-- Creator: CorelDRAW X8 -->
<svg xmlns="http://www.w3.org/2000/svg" xml:space="preserve" width="55mm" height="19mm" version="1.1"
     style="shape-rendering:geometricPrecision; text-rendering:geometricPrecision; margin-top:-10px; margin-left:15px; image-rendering:optimizeQuality; fill-rule:evenodd; clip-rule:evenodd;"
viewBox="0 0 7000 1900"
 xmlns:xlink="http://www.w3.org/1999/xlink">
 <defs>
  <style type="text/css">
   <![CDATA[
    .fil0 {fill:#000}
    .fil2 {fill:#FFED00;fill-rule:nonzero}
    .fil1 {fill:white;fill-rule:nonzero}
    .fil3 {fill:url(#id0);fill-rule:nonzero}
   ]]>
  </style>
  <linearGradient id="id0" gradientUnits="userSpaceOnUse" x1="157.86" y1="965.01" x2="1109.96" y2="965.01">
   <stop offset="0" style="stop-opacity:0.827451; stop-color:#807B28"/>
   <stop offset="1" style="stop-opacity:1; stop-color:white"/>
  </linearGradient>
 </defs>
 <g id="Слой_x0020_1">
  <metadata id="CorelCorpID_0Corel-Layer"/>
  <rect class="fil0" x="1" y="-3" width="7000" height="1700"/>
  <path class="fil1" d="M1580 1040c0,0 37,43 120,43 77,0 136,-57 136,-127 0,-57 -37,-95 -87,-105 26,-16 65,-49 65,-101 0,-56 -36,-94 -112,-94 -55,0 -83,14 -83,14l-1 31c0,0 30,-11 72,-11 55,0 83,27 83,72 0,54 -49,87 -49,87 -31,0 -62,0 -62,0 0,0 -2,20 -2,33 0,0 32,-2 60,-2 45,0 72,30 72,80 0,47 -38,90 -97,90 -61,0 -101,-38 -101,-38l-14 28zm307 -113c0,94 57,156 132,156 63,0 97,-35 97,-35l-10 -23c0,0 -33,26 -80,26 -53,0 -98,-46 -99,-117 6,3 23,7 47,7 95,0 147,-38 147,-103 0,-57 -43,-88 -96,-88 -73,0 -138,69 -138,177zm40 -14c0,-82 45,-134 95,-134 37,0 63,24 63,63 0,49 -41,75 -120,75 -20,0 -34,-2 -38,-4zm246 -130l11 0c7,0 15,0 17,2 2,1 3,12 3,25 0,141 -2,284 -2,425l40 -2 0 -156c14,3 32,6 54,6 99,0 152,-74 152,-173 0,-98 -45,-160 -108,-160 -67,0 -95,65 -95,65l-2 0 0 -26c0,-22 -2,-35 -9,-35 -11,0 -59,4 -59,4l-2 25zm69 259c1,-66 1,-134 1,-201 0,0 31,-51 80,-51 49,0 83,47 83,127 0,79 -36,136 -104,136 -23,0 -44,-5 -60,-11l0 0zm260 -259c0,0 22,1 28,2 2,0 3,11 3,25 0,89 -1,178 -1,267l40 -3c0,-50 0,-100 0,-150 52,0 104,-1 141,-6l0 98c0,47 8,64 33,64 17,0 41,-12 41,-12l0 -23c0,0 -17,6 -23,6 -8,0 -13,-9 -13,-40 0,-86 3,-170 3,-254l-40 2c0,44 0,88 -1,132 -55,0 -107,2 -141,6 1,-31 1,-61 1,-92 0,-40 -3,-51 -13,-51 -15,0 -57,4 -57,4l-1 25zm343 135c0,103 59,165 133,165 74,0 133,-65 133,-168 0,-103 -60,-165 -133,-165 -74,0 -133,66 -133,168zm40 -3c0,-83 40,-134 92,-134 53,0 94,54 94,137 0,83 -41,133 -92,133 -53,0 -94,-53 -94,-136zm284 -129c0,0 12,-2 29,-3 -1,98 -2,195 -2,292 0,0 40,8 93,8 97,0 126,-52 126,-100 0,-45 -30,-70 -65,-75 17,-11 44,-36 44,-78 0,-44 -34,-80 -107,-80 -62,0 -117,9 -117,9l-1 27zm66 265l0 -123c22,-1 57,-3 80,-3 42,0 64,22 64,56 0,35 -19,74 -94,74 -17,0 -35,-2 -50,-4zm1 -146c0,-41 0,-83 0,-125 19,-1 39,-2 54,-2 47,0 68,30 68,60 0,46 -38,63 -38,63 -29,0 -63,3 -84,4l0 0zm229 85c0,62 42,93 87,93 70,0 95,-74 95,-74l0 7c0,47 8,64 33,64 18,0 42,-12 42,-12l0 -21c0,0 -18,5 -24,5 -8,0 -11,-12 -11,-41 0,-64 2,-91 2,-159 0,-60 -21,-102 -99,-102 -47,0 -86,14 -86,14l-1 26c0,0 39,-9 76,-9 53,0 70,26 70,73l0 39c-19,-2 -47,-6 -74,-6 -62,0 -110,37 -110,103zm38 -8c0,-47 32,-75 78,-75 21,0 48,4 67,6 0,24 -1,45 -1,71 -6,20 -35,67 -81,67 -34,0 -63,-24 -63,-69zm288 92l41 3 62 -134 6 0c24,0 48,-4 67,-8l0 81c0,47 7,64 32,64 18,0 41,-12 41,-12l0 -21c0,0 -17,5 -23,5 -8,0 -12,-10 -12,-41 0,-85 2,-253 2,-253 0,0 -51,-8 -93,-8 -76,0 -119,44 -119,103 0,46 28,76 69,86l-73 135zm41 -222c0,-40 26,-74 79,-74 19,0 39,3 56,6 0,43 0,86 0,129 -21,4 -47,7 -66,7 -44,0 -69,-26 -69,-68l0 0zm436 19c0,130 73,212 173,212 88,0 137,-60 137,-60l-11 -23c0,0 -50,46 -119,46 -77,0 -133,-71 -133,-177 0,-106 55,-178 135,-178 27,0 49,4 67,8 -1,42 -1,103 -1,103l30 0 8 -130c0,0 -40,-16 -109,-16 -99,0 -177,87 -177,215zm329 -86c0,0 43,3 90,4 0,75 0,151 0,227 0,47 7,64 32,64 19,0 41,-12 41,-12l0 -23c0,0 -17,6 -22,6 -8,0 -12,-11 -12,-40 0,-75 1,-148 1,-222 59,-1 105,-5 105,-5l0 -26 -235 0 0 27zm264 133c0,103 59,165 133,165 74,0 133,-65 133,-168 0,-103 -60,-165 -133,-165 -74,0 -133,66 -133,168zm40 -3c0,-83 40,-134 92,-134 53,0 94,54 94,137 0,83 -41,133 -92,133 -53,0 -94,-53 -94,-136zm265 135c3,20 9,33 9,33 66,-14 99,-135 123,-296l26 0c30,0 40,11 42,30l13 199c4,39 6,64 34,64 19,0 42,-12 42,-12l0 -21c0,0 -17,5 -24,5 -8,0 -9,-23 -11,-41l-14 -207c-3,-32 -19,-50 -71,-50 -39,0 -108,5 -108,5l-1 27c0,0 18,1 39,1 -23,155 -56,250 -99,263zm343 -267c0,0 22,1 28,2 1,0 3,11 3,25 0,89 -1,178 -1,267l21 -2 99 -149 62 -99c0,63 -3,126 -3,189 0,47 8,64 32,64 19,0 42,-12 42,-12l0 -21c0,0 -17,5 -23,5 -8,0 -13,-10 -13,-41 0,-86 3,-254 3,-254l-21 1c-2,3 -64,98 -99,153 -12,22 -41,67 -63,101l4 -207c0,-40 -3,-51 -13,-51 -15,0 -57,4 -57,4l-1 25zm347 0l12 0c6,0 13,0 16,1 2,0 3,11 3,26 0,155 -1,188 -1,221 0,39 22,44 61,44l167 0c-2,64 -9,132 -9,132l34 -1c0,0 10,-81 10,-163l-46 0c0,-95 1,-191 1,-286l-41 2 0 284 -93 0c-29,0 -44,-5 -44,-27 0,-19 0,-169 0,-211 0,-30 -2,-51 -16,-51 -14,0 -52,4 -52,4l-2 25zm343 207c0,62 42,93 87,93 70,0 95,-74 95,-74l0 7c0,47 8,64 32,64 19,0 42,-12 42,-12l0 -21c0,0 -17,5 -23,5 -8,0 -12,-12 -12,-41 0,-64 2,-91 2,-159 0,-60 -20,-102 -99,-102 -46,0 -86,14 -86,14l-1 26c0,0 40,-9 76,-9 54,0 70,26 70,73l0 39c-19,-2 -46,-6 -73,-6 -62,0 -110,37 -110,103zm38 -8c0,-47 32,-75 78,-75 21,0 48,4 67,6 0,24 -1,45 -1,71 -6,20 -36,67 -81,67 -34,0 -63,-24 -63,-69z"/>
  <path class="logotip fil2" d="M637 1547c-1,0 -7,0 -8,0 -98,0 -176,-36 -176,-28 0,3 -1,12 4,19 5,6 12,15 19,21 8,6 28,19 32,21 38,21 85,51 93,72 8,22 0,115 6,129 4,9 13,14 25,13 13,1 22,-3 26,-13 6,-14 -2,-106 6,-129 8,-20 55,-49 94,-70 4,-2 24,-14 32,-20 7,-6 14,-12 19,-18 5,-7 5,-21 4,-24 0,-8 -78,28 -176,27zm450 -1173c-7,-5 -50,-4 -89,20 -9,5 -37,32 -42,38 -31,34 -73,79 -105,78 -23,-1 -134,-186 -199,-217 -6,-3 -13,-3 -20,-3 -7,0 -13,0 -19,3 -66,30 -178,215 -202,215 -31,1 -73,-44 -104,-78 -5,-5 -33,-33 -41,-38 -39,-24 -82,-26 -90,-21 -6,5 -7,10 2,32 3,6 71,193 108,311 13,40 26,85 71,115 49,34 159,91 259,94 2,0 27,0 30,0 99,-2 209,-59 258,-92 45,-30 58,-75 71,-116 38,-117 108,-304 110,-309 10,-22 9,-28 2,-32zm-795 571c10,105 49,160 55,169 44,62 153,114 219,129 33,8 40,-12 40,-57 0,0 1,-153 1,-175 0,-45 -29,-49 -79,-64 -65,-19 -165,-72 -185,-86 -23,-16 -44,-37 -61,-69 -3,-6 -34,-82 -69,-105 -3,-2 -8,-5 -10,-5 -3,0 -3,2 -1,4 26,22 35,45 37,47 23,46 47,156 53,212zm313 514c0,0 1,-118 1,-127 0,-42 -12,-45 -59,-59 -95,-29 -171,-74 -214,-123 -9,-11 -28,-45 -33,-54 -4,-8 -9,-18 -15,-26 -11,-14 -26,-28 -42,-37 -3,-1 -7,-3 -7,-3 -4,-1 -6,4 -3,4 5,2 17,10 20,14 14,15 20,27 28,40 2,5 10,25 11,31 3,11 6,24 7,27 6,35 18,95 31,150 0,4 6,27 12,43 4,12 10,27 16,40 8,15 19,29 27,39 7,8 28,32 63,49 46,22 82,27 120,32 29,4 37,-17 37,-40zm453 -775c-2,0 -7,3 -10,5 -35,23 -67,99 -70,104 -17,33 -39,54 -62,70 -20,13 -119,66 -184,85 -50,14 -80,18 -80,63 0,22 0,176 0,176 -1,44 7,64 40,57 66,-15 177,-67 222,-129 6,-8 44,-63 55,-169 6,-55 30,-165 54,-211 1,-2 11,-25 37,-47 2,-1 1,-4 -2,-4zm-34 348c-1,0 -5,2 -8,3 -16,9 -31,22 -42,37 -6,8 -11,17 -16,26 -5,9 -24,43 -34,53 -42,49 -118,94 -214,122 -46,14 -59,17 -59,59 0,9 0,127 0,127 0,24 9,44 38,40 38,-4 75,-9 122,-31 35,-17 55,-41 62,-49 8,-9 19,-23 27,-39 6,-12 12,-27 16,-40 6,-15 12,-38 13,-42 12,-55 25,-116 31,-150 1,-4 4,-16 7,-27 2,-7 9,-26 12,-31 7,-14 14,-25 28,-40 3,-4 14,-12 19,-14 3,0 2,-5 -2,-4zm-801 -723c0,-18 -14,-33 -32,-33 -18,0 -33,15 -33,33 0,18 14,33 33,33 18,0 32,-15 32,-33zm854 -30c-18,0 -32,14 -32,32 0,18 14,33 32,33 18,0 33,-14 33,-32 0,-18 -15,-33 -33,-33zm-498 -88c0,-31 25,-55 55,-55 31,0 56,25 56,55 0,31 -25,56 -56,56 -31,0 -56,-25 -55,-56z"/>
  <path class="fil3" d="M637 1547c-1,0 -7,0 -8,0 -98,0 -176,-36 -176,-28 0,3 -1,12 4,19 5,6 12,15 19,21 8,6 28,19 32,21 38,21 85,51 93,72 8,22 0,115 6,129 4,9 13,14 25,13 13,1 22,-3 26,-13 6,-14 -2,-106 6,-129 8,-20 55,-49 94,-70 4,-2 24,-14 32,-20 7,-6 14,-12 19,-18 5,-7 5,-21 4,-24 0,-8 -78,28 -176,27zm450 -1173c-7,-5 -50,-4 -89,20 -9,5 -37,32 -42,38 -31,34 -73,79 -105,78 -23,-1 -134,-186 -199,-217 -6,-3 -13,-3 -20,-3 -7,0 -13,0 -19,3 -66,30 -178,215 -202,215 -31,1 -73,-44 -104,-78 -5,-5 -33,-33 -41,-38 -39,-24 -82,-26 -90,-21 -6,5 -7,10 2,32 3,6 71,193 108,311 13,40 26,85 71,115 49,34 159,91 259,94 2,0 27,0 30,0 99,-2 209,-59 258,-92 45,-30 58,-75 71,-116 38,-117 108,-304 110,-309 10,-22 9,-28 2,-32zm-795 571c10,105 49,160 55,169 44,62 153,114 219,129 33,8 40,-12 40,-57 0,0 1,-153 1,-175 0,-45 -29,-49 -79,-64 -65,-19 -165,-72 -185,-86 -23,-16 -44,-37 -61,-69 -3,-6 -34,-82 -69,-105 -3,-2 -8,-5 -10,-5 -3,0 -3,2 -1,4 26,22 35,45 37,47 23,46 47,156 53,212zm313 514c0,0 1,-118 1,-127 0,-42 -12,-45 -59,-59 -95,-29 -171,-74 -214,-123 -9,-11 -28,-45 -33,-54 -4,-8 -9,-18 -15,-26 -11,-14 -26,-28 -42,-37 -3,-1 -7,-3 -7,-3 -4,-1 -6,4 -3,4 5,2 17,10 20,14 14,15 20,27 28,40 2,5 10,25 11,31 3,11 6,24 7,27 6,35 18,95 31,150 0,4 6,27 12,43 4,12 10,27 16,40 8,15 19,29 27,39 7,8 28,32 63,49 46,22 82,27 120,32 29,4 37,-17 37,-40zm453 -775c-2,0 -7,3 -10,5 -35,23 -67,99 -70,104 -17,33 -39,54 -62,70 -20,13 -119,66 -184,85 -50,14 -80,18 -80,63 0,22 0,176 0,176 -1,44 7,64 40,57 66,-15 177,-67 222,-129 6,-8 44,-63 55,-169 6,-55 30,-165 54,-211 1,-2 11,-25 37,-47 2,-1 1,-4 -2,-4zm-34 348c-1,0 -5,2 -8,3 -16,9 -31,22 -42,37 -6,8 -11,17 -16,26 -5,9 -24,43 -34,53 -42,49 -118,94 -214,122 -46,14 -59,17 -59,59 0,9 0,127 0,127 0,24 9,44 38,40 38,-4 75,-9 122,-31 35,-17 55,-41 62,-49 8,-9 19,-23 27,-39 6,-12 12,-27 16,-40 6,-15 12,-38 13,-42 12,-55 25,-116 31,-150 1,-4 4,-16 7,-27 2,-7 9,-26 12,-31 7,-14 14,-25 28,-40 3,-4 14,-12 19,-14 3,0 2,-5 -2,-4zm-801 -723c0,-18 -14,-33 -32,-33 -18,0 -33,15 -33,33 0,18 14,33 33,33 18,0 32,-15 32,-33zm854 -30c-18,0 -32,14 -32,32 0,18 14,33 32,33 18,0 33,-14 33,-32 0,-18 -15,-33 -33,-33zm-498 -88c0,-31 25,-55 55,-55 31,0 56,25 56,55 0,31 -25,56 -56,56 -31,0 -56,-25 -55,-56z"/>
  <path class="logotip fil2" d="M637 1547c-1,0 -7,0 -8,0 -98,0 -176,-36 -176,-28 0,3 -1,12 4,19 5,6 12,15 19,21 8,6 28,19 32,21 38,21 85,51 93,72 8,22 0,115 6,129 4,9 13,14 25,13 13,1 22,-3 26,-13 6,-14 -2,-106 6,-129 8,-20 55,-49 94,-70 4,-2 24,-14 32,-20 7,-6 14,-12 19,-18 5,-7 5,-21 4,-24 0,-8 -78,28 -176,27zm450 -1173c-7,-5 -50,-4 -89,20 -9,5 -37,32 -42,38 -31,34 -73,79 -105,78 -23,-1 -134,-186 -199,-217 -6,-3 -13,-3 -20,-3 -7,0 -13,0 -19,3 -66,30 -178,215 -202,215 -31,1 -73,-44 -104,-78 -5,-5 -33,-33 -41,-38 -39,-24 -82,-26 -90,-21 -6,5 -7,10 2,32 3,6 71,193 108,311 13,40 26,85 71,115 49,34 159,91 259,94 2,0 27,0 30,0 99,-2 209,-59 258,-92 45,-30 58,-75 71,-116 38,-117 108,-304 110,-309 10,-22 9,-28 2,-32zm-795 571c10,105 49,160 55,169 44,62 153,114 219,129 33,8 40,-12 40,-57 0,0 1,-153 1,-175 0,-45 -29,-49 -79,-64 -65,-19 -165,-72 -185,-86 -23,-16 -44,-37 -61,-69 -3,-6 -34,-82 -69,-105 -3,-2 -8,-5 -10,-5 -3,0 -3,2 -1,4 26,22 35,45 37,47 23,46 47,156 53,212zm313 514c0,0 1,-118 1,-127 0,-42 -12,-45 -59,-59 -95,-29 -171,-74 -214,-123 -9,-11 -28,-45 -33,-54 -4,-8 -9,-18 -15,-26 -11,-14 -26,-28 -42,-37 -3,-1 -7,-3 -7,-3 -4,-1 -6,4 -3,4 5,2 17,10 20,14 14,15 20,27 28,40 2,5 10,25 11,31 3,11 6,24 7,27 6,35 18,95 31,150 0,4 6,27 12,43 4,12 10,27 16,40 8,15 19,29 27,39 7,8 28,32 63,49 46,22 82,27 120,32 29,4 37,-17 37,-40zm453 -775c-2,0 -7,3 -10,5 -35,23 -67,99 -70,104 -17,33 -39,54 -62,70 -20,13 -119,66 -184,85 -50,14 -80,18 -80,63 0,22 0,176 0,176 -1,44 7,64 40,57 66,-15 177,-67 222,-129 6,-8 44,-63 55,-169 6,-55 30,-165 54,-211 1,-2 11,-25 37,-47 2,-1 1,-4 -2,-4zm-34 348c-1,0 -5,2 -8,3 -16,9 -31,22 -42,37 -6,8 -11,17 -16,26 -5,9 -24,43 -34,53 -42,49 -118,94 -214,122 -46,14 -59,17 -59,59 0,9 0,127 0,127 0,24 9,44 38,40 38,-4 75,-9 122,-31 35,-17 55,-41 62,-49 8,-9 19,-23 27,-39 6,-12 12,-27 16,-40 6,-15 12,-38 13,-42 12,-55 25,-116 31,-150 1,-4 4,-16 7,-27 2,-7 9,-26 12,-31 7,-14 14,-25 28,-40 3,-4 14,-12 19,-14 3,0 2,-5 -2,-4zm-801 -723c0,-18 -14,-33 -32,-33 -18,0 -33,15 -33,33 0,18 14,33 33,33 18,0 32,-15 32,-33zm854 -30c-18,0 -32,14 -32,32 0,18 14,33 32,33 18,0 33,-14 33,-32 0,-18 -15,-33 -33,-33zm-498 -88c0,-31 25,-55 55,-55 31,0 56,25 56,55 0,31 -25,56 -56,56 -31,0 -56,-25 -55,-56z"/>
  <path class="logotip fil2" d="M637 1547c-1,0 -7,0 -8,0 -98,0 -176,-36 -176,-28 0,3 -1,12 4,19 5,6 12,15 19,21 8,6 28,19 32,21 38,21 85,51 93,72 8,22 0,115 6,129 4,9 13,14 25,13 13,1 22,-3 26,-13 6,-14 -2,-106 6,-129 8,-20 55,-49 94,-70 4,-2 24,-14 32,-20 7,-6 14,-12 19,-18 5,-7 5,-21 4,-24 0,-8 -78,28 -176,27zm450 -1173c-7,-5 -50,-4 -89,20 -9,5 -37,32 -42,38 -31,34 -73,79 -105,78 -23,-1 -134,-186 -199,-217 -6,-3 -13,-3 -20,-3 -7,0 -13,0 -19,3 -66,30 -178,215 -202,215 -31,1 -73,-44 -104,-78 -5,-5 -33,-33 -41,-38 -39,-24 -82,-26 -90,-21 -6,5 -7,10 2,32 3,6 71,193 108,311 13,40 26,85 71,115 49,34 159,91 259,94 2,0 27,0 30,0 99,-2 209,-59 258,-92 45,-30 58,-75 71,-116 38,-117 108,-304 110,-309 10,-22 9,-28 2,-32zm-795 571c10,105 49,160 55,169 44,62 153,114 219,129 33,8 40,-12 40,-57 0,0 1,-153 1,-175 0,-45 -29,-49 -79,-64 -65,-19 -165,-72 -185,-86 -23,-16 -44,-37 -61,-69 -3,-6 -34,-82 -69,-105 -3,-2 -8,-5 -10,-5 -3,0 -3,2 -1,4 26,22 35,45 37,47 23,46 47,156 53,212zm313 514c0,0 1,-118 1,-127 0,-42 -12,-45 -59,-59 -95,-29 -171,-74 -214,-123 -9,-11 -28,-45 -33,-54 -4,-8 -9,-18 -15,-26 -11,-14 -26,-28 -42,-37 -3,-1 -7,-3 -7,-3 -4,-1 -6,4 -3,4 5,2 17,10 20,14 14,15 20,27 28,40 2,5 10,25 11,31 3,11 6,24 7,27 6,35 18,95 31,150 0,4 6,27 12,43 4,12 10,27 16,40 8,15 19,29 27,39 7,8 28,32 63,49 46,22 82,27 120,32 29,4 37,-17 37,-40zm453 -775c-2,0 -7,3 -10,5 -35,23 -67,99 -70,104 -17,33 -39,54 -62,70 -20,13 -119,66 -184,85 -50,14 -80,18 -80,63 0,22 0,176 0,176 -1,44 7,64 40,57 66,-15 177,-67 222,-129 6,-8 44,-63 55,-169 6,-55 30,-165 54,-211 1,-2 11,-25 37,-47 2,-1 1,-4 -2,-4zm-34 348c-1,0 -5,2 -8,3 -16,9 -31,22 -42,37 -6,8 -11,17 -16,26 -5,9 -24,43 -34,53 -42,49 -118,94 -214,122 -46,14 -59,17 -59,59 0,9 0,127 0,127 0,24 9,44 38,40 38,-4 75,-9 122,-31 35,-17 55,-41 62,-49 8,-9 19,-23 27,-39 6,-12 12,-27 16,-40 6,-15 12,-38 13,-42 12,-55 25,-116 31,-150 1,-4 4,-16 7,-27 2,-7 9,-26 12,-31 7,-14 14,-25 28,-40 3,-4 14,-12 19,-14 3,0 2,-5 -2,-4zm-801 -723c0,-18 -14,-33 -32,-33 -18,0 -33,15 -33,33 0,18 14,33 33,33 18,0 32,-15 32,-33zm854 -30c-18,0 -32,14 -32,32 0,18 14,33 32,33 18,0 33,-14 33,-32 0,-18 -15,-33 -33,-33zm-498 -88c0,-31 25,-55 55,-55 31,0 56,25 56,55 0,31 -25,56 -56,56 -31,0 -56,-25 -55,-56z"/>
 </g>
</svg>