<?xml version="1.0" encoding="UTF-8"?>
<!DOCTYPE svg PUBLIC "-//W3C//DTD SVG 1.1//EN" "http://www.w3.org/Graphics/SVG/1.1/DTD/svg11.dtd">
<!-- Creator: CorelDRAW X8 -->
<svg xmlns="http://www.w3.org/2000/svg" xml:space="preserve" width="65.264mm" height="19.05mm" version="1.1" style="shape-rendering:geometricPrecision; text-rendering:geometricPrecision; image-rendering:optimizeQuality; fill-rule:evenodd; clip-rule:evenodd"
viewBox="0 0 6526 1905"
 xmlns:xlink="http://www.w3.org/1999/xlink">
 <defs>
  <style type="text/css">
   <![CDATA[
    .fil0 {fill:#000}
    .fil3 {fill:#BCBCBC;fill-rule:nonzero}
    .fil1 {fill:#FAC814;fill-rule:nonzero}
    .fil2 {fill:white;fill-rule:nonzero}
   ]]>
  </style>
 </defs>
 <g id="Слой_x0020_1">
  <metadata id="CorelCorpID_0Corel-Layer"/>
  <g id="archiv_open" class="archiv_open">
   <rect class="fil0" width="6526" height="1905"/>
   <path class="fil1" d="M1303 1094l-124 0 0 41 124 0 0 -41zm0 -83l-124 0 0 41 124 0 0 -41zm0 -82l-124 0 0 41 124 0 0 -41zm-290 165l-124 0 0 41 124 0 0 -41zm0 -83l-124 0 0 41 124 0 0 -41zm0 -82l-124 0 0 41 124 0 0 -41zm-290 165l-124 0 0 41 124 0 0 -41zm0 -83l-124 0 0 41 124 0 0 -41zm0 -82l-124 0 0 41 124 0 0 -41zm518 -247c12,0 21,8 21,21 0,12 -9,20 -21,20 -12,0 -21,-8 -21,-20 0,-13 9,-21 21,-21zm0 82c33,0 62,-29 62,-61 0,-33 -29,-62 -62,-62 -33,0 -62,29 -62,62 0,32 29,61 62,61zm-290 -82c13,0 21,8 21,21 0,12 -8,20 -21,20 -12,0 -21,-8 -21,-20 0,-13 9,-21 21,-21zm0 82c33,0 62,-29 62,-61 0,-33 -29,-62 -62,-62 -33,0 -62,29 -62,62 0,32 29,61 62,61zm-290 -82c13,0 21,8 21,21 0,12 -8,20 -21,20 -12,0 -20,-8 -20,-20 0,-13 8,-21 20,-21zm0 82c33,0 62,-29 62,-61 0,-33 -29,-62 -62,-62 -33,0 -62,29 -62,62 0,32 29,61 62,61zm684 618l-208 0 0 -823 208 0 0 823zm-290 0l-207 0 0 -823 207 0 0 823zm-290 0l-207 0 0 -823 207 0 0 823zm621 -906l-870 0c-25,0 -41,17 -41,41l0 906c0,25 16,41 41,41l870 0c25,0 41,-16 41,-41l0 -906c0,-24 -16,-41 -41,-41z"/>
   <path class="fil2" d="M1884 1080l136 -353 51 0 144 353 -53 0 -41 -107 -149 0 -38 107 -50 0zm102 -145l120 0 -36 -98c-12,-30 -20,-54 -26,-74 -5,23 -11,46 -19,68l-39 104zm261 244l0 -355 39 0 0 34c10,-13 20,-23 32,-30 12,-6 26,-9 43,-9 22,0 41,5 58,17 16,11 29,27 37,47 9,21 13,43 13,67 0,26 -5,50 -14,71 -9,21 -23,37 -41,48 -18,11 -37,17 -56,17 -15,0 -28,-3 -39,-9 -12,-6 -21,-14 -29,-23l0 125 -43 0zm39 -225c0,33 7,57 20,73 14,15 30,23 49,23 19,0 35,-8 49,-24 14,-16 21,-42 21,-76 0,-32 -7,-57 -20,-73 -14,-16 -30,-24 -48,-24 -19,0 -35,8 -49,26 -15,17 -22,42 -22,75zm200 126l94 -132 -87 -124 54 0 40 61c8,11 14,20 18,27 7,-10 14,-19 20,-28l42 -60 53 0 -87 124 93 132 -53 0 -53 -79 -12 -19 -68 98 -54 0zm277 -256l43 0 0 196 121 -196 47 0 0 256 -44 0 0 -194 -120 194 -47 0 0 -256zm276 0l100 0c24,0 43,2 55,6 12,4 22,12 31,23 8,11 12,24 12,39 0,13 -2,23 -7,32 -5,9 -13,17 -23,23 12,4 22,12 30,23 8,11 12,24 12,39 -2,24 -10,42 -26,54 -16,12 -39,17 -69,17l-115 0 0 -256zm43 108l46 0c19,0 31,-1 38,-3 7,-2 13,-5 19,-11 5,-6 8,-13 8,-22 0,-13 -5,-23 -14,-28 -10,-5 -26,-8 -49,-8l-48 0 0 72zm0 113l57 0c25,0 42,-3 51,-9 9,-5 14,-15 14,-29 0,-8 -2,-16 -8,-23 -5,-7 -12,-12 -20,-13 -9,-2 -22,-3 -41,-3l-53 0 0 77z"/>
  </g>
  <g id="archiv_close" class="archiv_close">
   <rect class="fil0" width="6526" height="1905"/>
   <path class="fil3" d="M1303 1094l-124 0 0 41 124 0 0 -41zm0 -83l-124 0 0 41 124 0 0 -41zm0 -82l-124 0 0 41 124 0 0 -41zm-290 165l-124 0 0 41 124 0 0 -41zm0 -83l-124 0 0 41 124 0 0 -41zm0 -82l-124 0 0 41 124 0 0 -41zm-290 165l-124 0 0 41 124 0 0 -41zm0 -83l-124 0 0 41 124 0 0 -41zm0 -82l-124 0 0 41 124 0 0 -41zm518 -247c12,0 21,8 21,21 0,12 -9,20 -21,20 -12,0 -21,-8 -21,-20 0,-13 9,-21 21,-21zm0 82c33,0 62,-29 62,-61 0,-33 -29,-62 -62,-62 -33,0 -62,29 -62,62 0,32 29,61 62,61zm-290 -82c13,0 21,8 21,21 0,12 -8,20 -21,20 -12,0 -21,-8 -21,-20 0,-13 9,-21 21,-21zm0 82c33,0 62,-29 62,-61 0,-33 -29,-62 -62,-62 -33,0 -62,29 -62,62 0,32 29,61 62,61zm-290 -82c13,0 21,8 21,21 0,12 -8,20 -21,20 -12,0 -20,-8 -20,-20 0,-13 8,-21 20,-21zm0 82c33,0 62,-29 62,-61 0,-33 -29,-62 -62,-62 -33,0 -62,29 -62,62 0,32 29,61 62,61zm684 618l-208 0 0 -823 208 0 0 823zm-290 0l-207 0 0 -823 207 0 0 823zm-290 0l-207 0 0 -823 207 0 0 823zm621 -906l-870 0c-25,0 -41,17 -41,41l0 906c0,25 16,41 41,41l870 0c25,0 41,-16 41,-41l0 -906c0,-24 -16,-41 -41,-41z"/>
   <path class="fil2" d="M1884 1080l136 -353 51 0 144 353 -53 0 -41 -107 -149 0 -38 107 -50 0zm102 -145l120 0 -36 -98c-12,-30 -20,-54 -26,-74 -5,23 -11,46 -19,68l-39 104zm261 244l0 -355 39 0 0 34c10,-13 20,-23 32,-30 12,-6 26,-9 43,-9 22,0 41,5 58,17 16,11 29,27 37,47 9,21 13,43 13,67 0,26 -5,50 -14,71 -9,21 -23,37 -41,48 -18,11 -37,17 -56,17 -15,0 -28,-3 -39,-9 -12,-6 -21,-14 -29,-23l0 125 -43 0zm39 -225c0,33 7,57 20,73 14,15 30,23 49,23 19,0 35,-8 49,-24 14,-16 21,-42 21,-76 0,-32 -7,-57 -20,-73 -14,-16 -30,-24 -48,-24 -19,0 -35,8 -49,26 -15,17 -22,42 -22,75zm200 126l94 -132 -87 -124 54 0 40 61c8,11 14,20 18,27 7,-10 14,-19 20,-28l42 -60 53 0 -87 124 93 132 -53 0 -53 -79 -12 -19 -68 98 -54 0zm277 -256l43 0 0 196 121 -196 47 0 0 256 -44 0 0 -194 -120 194 -47 0 0 -256zm276 0l100 0c24,0 43,2 55,6 12,4 22,12 31,23 8,11 12,24 12,39 0,13 -2,23 -7,32 -5,9 -13,17 -23,23 12,4 22,12 30,23 8,11 12,24 12,39 -2,24 -10,42 -26,54 -16,12 -39,17 -69,17l-115 0 0 -256zm43 108l46 0c19,0 31,-1 38,-3 7,-2 13,-5 19,-11 5,-6 8,-13 8,-22 0,-13 -5,-23 -14,-28 -10,-5 -26,-8 -49,-8l-48 0 0 72zm0 113l57 0c25,0 42,-3 51,-9 9,-5 14,-15 14,-29 0,-8 -2,-16 -8,-23 -5,-7 -12,-12 -20,-13 -9,-2 -22,-3 -41,-3l-53 0 0 77z"/>
  </g>
 </g>
</svg>
