<?xml version="1.0" encoding="UTF-8"?>
<!DOCTYPE svg PUBLIC "-//W3C//DTD SVG 1.1//EN" "http://www.w3.org/Graphics/SVG/1.1/DTD/svg11.dtd">
<!-- Creator: CorelDRAW X8 -->
<svg xmlns="http://www.w3.org/2000/svg" xml:space="preserve" width="65.264mm" height="19.05mm" version="1.1" style="shape-rendering:geometricPrecision; text-rendering:geometricPrecision; image-rendering:optimizeQuality; fill-rule:evenodd; clip-rule:evenodd"
viewBox="0 0 6526 1905"
 xmlns:xlink="http://www.w3.org/1999/xlink">
 <defs>
  <style type="text/css">
   <![CDATA[
    .fil0 {fill:#000}
    .fil3 {fill:#BCBCBC;fill-rule:nonzero}
    .fil1 {fill:red;fill-rule:nonzero}
    .fil2 {fill:white;fill-rule:nonzero}
   ]]>
  </style>
 </defs>
 <g id="Слой_x0020_1">
  <metadata id="CorelCorpID_0Corel-Layer"/>
  <g id="exit_press" class="exit_press">
   <rect class="fil0" width="6526" height="1905"/>
   <path class="fil1" d="M1270 971c0,176 -143,319 -319,319 -176,0 -319,-143 -319,-319 0,-85 33,-165 94,-226 9,-9 21,-13 33,-13 12,0 24,4 33,13 18,19 18,48 0,67 -43,42 -66,99 -66,159 0,124 101,225 225,225 124,0 225,-101 225,-225 0,-60 -23,-117 -66,-159 -18,-19 -18,-48 0,-67 19,-18 48,-18 67,0 60,61 93,141 93,226zm-270 -2c0,26 -21,47 -47,47 -26,0 -47,-21 -47,-47l0 -243c0,-26 21,-47 47,-47 26,0 47,21 47,47l0 243zm445 1c0,-272 -221,-494 -494,-494 -272,0 -494,222 -494,494 0,272 222,494 494,494 273,0 494,-222 494,-494z"/>
   <path class="fil2" d="M1921 1080l0 -353 133 0c27,0 48,3 65,10 16,8 29,19 38,34 9,14 14,30 14,46 0,15 -4,30 -12,43 -9,13 -21,24 -37,32 21,6 37,17 49,32 11,15 17,33 17,54 0,16 -3,32 -10,46 -7,14 -16,25 -26,33 -11,8 -24,14 -39,17 -16,4 -35,6 -57,6l-135 0zm47 -205l76 0c21,0 36,-1 45,-4 12,-3 21,-9 27,-17 6,-9 9,-19 9,-31 0,-12 -3,-22 -9,-31 -5,-9 -13,-15 -24,-19 -10,-3 -28,-5 -53,-5l-71 0 0 107zm0 164l88 0c15,0 26,-1 32,-2 11,-2 20,-5 27,-9 7,-5 13,-12 18,-20 4,-9 7,-19 7,-30 0,-13 -4,-25 -10,-35 -7,-9 -17,-16 -29,-20 -12,-4 -29,-6 -51,-6l-82 0 0 122zm523 -215l43 0 0 256 -43 0 0 -256zm-243 0l44 0 0 100 55 0c35,0 63,7 82,21 20,14 29,33 29,58 0,21 -8,39 -24,55 -16,15 -42,22 -77,22l-109 0 0 -256zm44 221l45 0c28,0 48,-4 59,-10 12,-7 18,-18 18,-32 0,-11 -5,-21 -13,-30 -9,-8 -28,-13 -58,-13l-51 0 0 85zm280 35l94 -132 -87 -124 54 0 40 61c8,11 14,20 18,27 7,-10 14,-19 19,-28l43 -60 53 0 -87 124 93 132 -53 0 -53 -79 -12 -19 -69 98 -53 0zm255 -128c0,-47 13,-82 40,-105 22,-19 49,-28 80,-28 35,0 64,11 87,34 22,23 33,55 33,96 0,33 -5,58 -15,77 -10,19 -24,34 -43,44 -19,11 -39,16 -62,16 -36,0 -65,-12 -87,-35 -22,-23 -33,-56 -33,-99zm45 0c0,33 7,58 21,74 14,16 32,24 54,24 22,0 40,-8 54,-24 14,-17 22,-42 22,-75 0,-32 -8,-56 -22,-72 -14,-16 -32,-24 -54,-24 -22,0 -40,8 -54,24 -14,16 -21,41 -21,73zm269 -128l179 0 0 221 28 0 0 108 -36 0 0 -73 -202 0 0 73 -35 0 0 -108 22 0c31,-42 46,-115 44,-221zm36 36c-3,83 -16,145 -38,185l138 0 0 -185 -100 0z"/>
  </g>
  <g id="exit_not_press" class="exit_not_press">
   <rect class="fil0" width="6526" height="1905"/>
   <path class="fil3" d="M1935 971c0,176 -143,319 -319,319 -176,0 -319,-143 -319,-319 0,-85 33,-165 94,-226 9,-9 21,-13 33,-13 12,0 24,4 33,13 18,19 18,48 0,67 -43,42 -66,99 -66,159 0,124 101,225 225,225 124,0 225,-101 225,-225 0,-60 -23,-117 -66,-159 -18,-19 -18,-48 0,-67 19,-18 48,-18 67,0 60,61 93,141 93,226zm-270 -2c0,26 -21,47 -47,47 -26,0 -47,-21 -47,-47l0 -243c0,-26 21,-47 47,-47 26,0 47,21 47,47l0 243zm445 1c0,-272 -221,-494 -494,-494 -272,0 -494,222 -494,494 0,272 222,494 494,494 273,0 494,-222 494,-494z"/>
   <path class="fil2" d="M2586 1080l0 -353 133 0c27,0 48,3 65,10 16,8 29,19 38,34 9,14 14,30 14,46 0,15 -4,30 -12,43 -9,13 -21,24 -38,32 22,6 38,17 50,32 11,15 17,33 17,54 0,16 -3,32 -10,46 -7,14 -16,25 -26,33 -11,8 -24,14 -39,17 -16,4 -35,6 -57,6l-135 0zm47 -205l76 0c21,0 36,-1 45,-4 12,-3 21,-9 27,-17 6,-9 9,-19 9,-31 0,-12 -3,-22 -9,-31 -5,-9 -13,-15 -24,-19 -10,-3 -28,-5 -53,-5l-71 0 0 107zm0 164l88 0c15,0 26,-1 32,-2 11,-2 20,-5 27,-9 7,-5 13,-12 18,-20 4,-9 7,-19 7,-30 0,-13 -4,-25 -11,-35 -6,-9 -16,-16 -28,-20 -12,-4 -29,-6 -51,-6l-82 0 0 122zm523 -215l43 0 0 256 -43 0 0 -256zm-243 0l44 0 0 100 55 0c35,0 63,7 82,21 20,14 29,33 29,58 0,21 -8,39 -24,55 -16,15 -42,22 -77,22l-109 0 0 -256zm44 221l45 0c28,0 47,-4 59,-10 12,-7 18,-18 18,-32 0,-11 -5,-21 -13,-30 -9,-8 -28,-13 -58,-13l-51 0 0 85zm280 35l94 -132 -87 -124 54 0 40 61c8,11 13,20 18,27 7,-10 14,-19 19,-28l43 -60 53 0 -87 124 93 132 -53 0 -53 -79 -12 -19 -69 98 -53 0zm255 -128c0,-47 13,-82 40,-105 22,-19 48,-28 80,-28 35,0 64,11 87,34 22,23 33,55 33,96 0,33 -5,58 -15,77 -10,19 -24,34 -43,44 -19,11 -40,16 -62,16 -36,0 -65,-12 -87,-35 -22,-23 -33,-56 -33,-99zm44 0c0,33 8,58 22,74 14,16 32,24 54,24 22,0 40,-8 54,-24 14,-17 22,-42 22,-75 0,-32 -8,-56 -22,-72 -14,-16 -32,-24 -54,-24 -22,0 -40,8 -54,24 -14,16 -22,41 -22,73zm270 -128l179 0 0 221 28 0 0 108 -36 0 0 -73 -202 0 0 73 -35 0 0 -108 22 0c31,-42 46,-115 44,-221zm36 36c-3,83 -16,145 -38,185l138 0 0 -185 -100 0z"/>
  </g>
 </g>
</svg>
