<?xml version="1.0" encoding="UTF-8"?>
<!DOCTYPE svg PUBLIC "-//W3C//DTD SVG 1.1//EN" "http://www.w3.org/Graphics/SVG/1.1/DTD/svg11.dtd">
<!-- Creator: CorelDRAW X8 -->
<svg xmlns="http://www.w3.org/2000/svg" xml:space="preserve" width="65.264mm" height="19.05mm" version="1.1" style="shape-rendering:geometricPrecision; text-rendering:geometricPrecision; image-rendering:optimizeQuality; fill-rule:evenodd; clip-rule:evenodd"
viewBox="0 0 6526 1905"
 xmlns:xlink="http://www.w3.org/1999/xlink">
 <defs>
  <style type="text/css">
   <![CDATA[
    .fil0 {fill:#000}
    .fil3 {fill:#BCBCBC;fill-rule:nonzero}
    .fil2 {fill:#FAC814;fill-rule:nonzero}
    .fil1 {fill:white;fill-rule:nonzero}
   ]]>
  </style>
 </defs>
 <g id="Слой_x0020_1">
  <metadata id="CorelCorpID_0Corel-Layer"/>
  <g id="servise_open" class="servise_open">
   <rect class="fil0" width="6526" height="1905"/>
   <path class="fil1" d="M2175 956l47 12c-10,39 -28,68 -53,88 -26,20 -57,30 -93,30 -39,0 -69,-7 -93,-23 -24,-15 -42,-38 -55,-67 -12,-30 -18,-61 -18,-95 0,-37 7,-69 21,-96 14,-28 34,-49 60,-63 26,-14 54,-21 85,-21 36,0 65,9 89,27 25,18 41,43 51,76l-46 11c-8,-26 -20,-45 -36,-57 -15,-11 -35,-17 -59,-17 -27,0 -49,6 -68,19 -18,13 -31,31 -38,53 -7,22 -11,44 -11,68 0,30 4,56 13,78 9,23 22,40 41,51 18,11 38,16 60,16 26,0 48,-7 66,-22 18,-15 30,-38 37,-68zm274 41l45 6c-7,26 -20,47 -39,61 -19,15 -44,22 -73,22 -38,0 -67,-12 -89,-35 -22,-23 -33,-55 -33,-97 0,-43 11,-76 33,-100 22,-23 51,-35 86,-35 34,0 62,11 84,35 22,23 32,56 32,98 0,2 0,6 0,11l-191 0c2,28 10,50 24,65 14,15 32,22 54,22 15,0 29,-4 40,-12 11,-9 20,-22 27,-41zm-142 -69l142 0c-1,-22 -7,-38 -16,-49 -14,-16 -32,-25 -54,-25 -20,0 -36,7 -50,20 -13,14 -21,31 -22,54zm242 251l0 -355 39 0 0 34c10,-13 20,-23 32,-30 12,-6 26,-9 43,-9 21,0 41,5 57,17 17,11 30,27 38,47 9,21 13,43 13,67 0,26 -5,50 -14,71 -9,21 -23,37 -41,48 -18,11 -37,17 -56,17 -15,0 -28,-3 -39,-9 -12,-6 -21,-14 -29,-23l0 125 -43 0zm39 -225c0,33 7,57 20,73 14,15 30,23 49,23 19,0 35,-8 49,-24 14,-16 21,-42 21,-76 0,-32 -7,-57 -20,-73 -14,-16 -30,-24 -48,-24 -19,0 -35,8 -49,26 -15,17 -22,42 -22,75zm235 -130l101 0c24,0 42,2 54,6 12,4 23,12 31,23 9,11 13,24 13,39 0,13 -3,23 -8,32 -5,9 -12,17 -22,23 12,4 22,12 30,23 7,11 11,24 11,39 -1,24 -10,42 -26,54 -15,12 -38,17 -68,17l-116 0 0 -256zm44 108l46 0c18,0 31,-1 38,-3 7,-2 13,-5 18,-11 6,-6 9,-13 9,-22 0,-13 -5,-23 -15,-28 -9,-5 -26,-8 -49,-8l-47 0 0 72zm0 113l57 0c25,0 41,-3 51,-9 9,-5 13,-15 14,-29 0,-8 -3,-16 -8,-23 -5,-7 -12,-12 -21,-13 -8,-2 -22,-3 -41,-3l-52 0 0 77zm219 -221l43 0 0 196 121 -196 47 0 0 256 -44 0 0 -194 -120 194 -47 0 0 -256zm443 163l43 5c-5,30 -17,53 -36,69 -19,17 -43,25 -71,25 -35,0 -63,-12 -84,-34 -21,-23 -32,-56 -32,-99 0,-27 5,-52 14,-72 9,-21 23,-37 42,-47 18,-10 39,-15 61,-15 27,0 50,7 68,21 17,14 29,34 34,60l-42 6c-4,-17 -11,-30 -22,-39 -10,-8 -22,-13 -37,-13 -22,0 -39,8 -53,24 -14,15 -21,40 -21,74 0,34 7,59 20,75 13,15 31,23 52,23 17,0 31,-5 43,-15 11,-11 18,-27 21,-48z"/>
   <path class="fil2" d="M1400 1401c-11,11 -29,11 -40,1 -12,-11 -12,-29 -1,-41 11,-11 29,-11 40,0 11,11 12,29 1,40zm26 -102l0 -1 -288 -278c21,-70 3,-150 -55,-205 -58,-56 -139,-71 -208,-47l68 65c16,15 16,41 1,56l-66 69c-15,16 -40,16 -56,1l-68 -66c-22,71 -3,151 55,207 58,56 140,71 209,46l287 278 1 -1c35,33 89,31 121,-3 33,-34 33,-88 -1,-121zm-481 -69c-153,0 -277,-125 -277,-278 0,-153 124,-277 277,-277 153,0 278,124 278,277 0,27 -4,52 -11,76l84 82c11,-25 21,-51 26,-78l104 -12c8,-1 14,-8 14,-16l0 -104c0,-7 -6,-14 -14,-15l-104 -12c-10,-47 -28,-92 -54,-131l65 -82c5,-6 4,-15 -1,-20l-74 -74c-5,-5 -14,-6 -20,-1l-82 65c-40,-26 -84,-44 -131,-54l-12 -104c-1,-8 -8,-14 -16,-14l-104 0c-7,0 -14,6 -15,14l-12 104c-48,10 -92,28 -131,54l-82 -65c-6,-5 -15,-4 -21,1l-73 74c-6,5 -6,14 -1,20l64 82c-25,39 -44,84 -54,131l-104 12c-7,1 -13,8 -13,15l0 104c0,8 6,15 13,16l104 12c10,47 29,91 54,130l-64 83c-5,6 -5,15 1,20l73 74c6,5 15,5 21,1l82 -65c39,25 83,44 131,54l12 104c1,7 8,13 15,13l104 0c8,0 15,-6 16,-13l12 -104c29,-6 57,-16 84,-29l-85 -82c-25,7 -51,12 -79,12z"/>
  </g>
  <g id="servise_close" class="servise_close">
   <rect class="fil0" width="6526" height="1905"/>
   <path class="fil1" d="M2175 956l47 12c-10,39 -28,68 -53,88 -26,20 -57,30 -93,30 -39,0 -69,-7 -93,-23 -24,-15 -42,-38 -55,-67 -12,-30 -18,-61 -18,-95 0,-37 7,-69 21,-96 14,-28 34,-49 60,-63 26,-14 54,-21 85,-21 36,0 65,9 89,27 25,18 41,43 51,76l-46 11c-8,-26 -20,-45 -36,-57 -15,-11 -35,-17 -59,-17 -27,0 -49,6 -68,19 -18,13 -31,31 -38,53 -7,22 -11,44 -11,68 0,30 4,56 13,78 9,23 22,40 41,51 18,11 38,16 60,16 26,0 48,-7 66,-22 18,-15 30,-38 37,-68zm274 41l45 6c-7,26 -20,47 -39,61 -19,15 -44,22 -73,22 -38,0 -67,-12 -89,-35 -22,-23 -33,-55 -33,-97 0,-43 11,-76 33,-100 22,-23 51,-35 86,-35 34,0 62,11 84,35 22,23 32,56 32,98 0,2 0,6 0,11l-191 0c2,28 10,50 24,65 14,15 32,22 54,22 15,0 29,-4 40,-12 11,-9 20,-22 27,-41zm-142 -69l142 0c-1,-22 -7,-38 -16,-49 -14,-16 -32,-25 -54,-25 -20,0 -36,7 -50,20 -13,14 -21,31 -22,54zm242 251l0 -355 39 0 0 34c10,-13 20,-23 32,-30 12,-6 26,-9 43,-9 21,0 41,5 57,17 17,11 30,27 38,47 9,21 13,43 13,67 0,26 -5,50 -14,71 -9,21 -23,37 -41,48 -18,11 -37,17 -56,17 -15,0 -28,-3 -39,-9 -12,-6 -21,-14 -29,-23l0 125 -43 0zm39 -225c0,33 7,57 20,73 14,15 30,23 49,23 19,0 35,-8 49,-24 14,-16 21,-42 21,-76 0,-32 -7,-57 -20,-73 -14,-16 -30,-24 -48,-24 -19,0 -35,8 -49,26 -15,17 -22,42 -22,75zm235 -130l101 0c24,0 42,2 54,6 12,4 23,12 31,23 9,11 13,24 13,39 0,13 -3,23 -8,32 -5,9 -12,17 -22,23 12,4 22,12 30,23 7,11 11,24 11,39 -1,24 -10,42 -26,54 -15,12 -38,17 -68,17l-116 0 0 -256zm44 108l46 0c18,0 31,-1 38,-3 7,-2 13,-5 18,-11 6,-6 9,-13 9,-22 0,-13 -5,-23 -15,-28 -9,-5 -26,-8 -49,-8l-47 0 0 72zm0 113l57 0c25,0 41,-3 51,-9 9,-5 13,-15 14,-29 0,-8 -3,-16 -8,-23 -5,-7 -12,-12 -21,-13 -8,-2 -22,-3 -41,-3l-52 0 0 77zm219 -221l43 0 0 196 121 -196 47 0 0 256 -44 0 0 -194 -120 194 -47 0 0 -256zm443 163l43 5c-5,30 -17,53 -36,69 -19,17 -43,25 -71,25 -35,0 -63,-12 -84,-34 -21,-23 -32,-56 -32,-99 0,-27 5,-52 14,-72 9,-21 23,-37 42,-47 18,-10 39,-15 61,-15 27,0 50,7 68,21 17,14 29,34 34,60l-42 6c-4,-17 -11,-30 -22,-39 -10,-8 -22,-13 -37,-13 -22,0 -39,8 -53,24 -14,15 -21,40 -21,74 0,34 7,59 20,75 13,15 31,23 52,23 17,0 31,-5 43,-15 11,-11 18,-27 21,-48z"/>
   <path class="fil3" d="M1400 1401c-11,11 -29,11 -40,1 -12,-11 -12,-29 -1,-41 11,-11 29,-11 40,0 11,11 12,29 1,40zm26 -102l0 -1 -288 -278c21,-70 3,-150 -55,-205 -58,-56 -139,-71 -208,-47l68 65c16,15 16,41 1,56l-66 69c-15,16 -40,16 -56,1l-68 -66c-22,71 -3,151 55,207 58,56 140,71 209,46l287 278 1 -1c35,33 89,31 121,-3 33,-34 33,-88 -1,-121zm-481 -69c-153,0 -277,-125 -277,-278 0,-153 124,-277 277,-277 153,0 278,124 278,277 0,27 -4,52 -11,76l84 82c11,-25 21,-51 26,-78l104 -12c8,-1 14,-8 14,-16l0 -104c0,-7 -6,-14 -14,-15l-104 -12c-10,-47 -28,-92 -54,-131l65 -82c5,-6 4,-15 -1,-20l-74 -74c-5,-5 -14,-6 -20,-1l-82 65c-40,-26 -84,-44 -131,-54l-12 -104c-1,-8 -8,-14 -16,-14l-104 0c-7,0 -14,6 -15,14l-12 104c-48,10 -92,28 -131,54l-82 -65c-6,-5 -15,-4 -21,1l-73 74c-6,5 -6,14 -1,20l64 82c-25,39 -44,84 -54,131l-104 12c-7,1 -13,8 -13,15l0 104c0,8 6,15 13,16l104 12c10,47 29,91 54,130l-64 83c-5,6 -5,15 1,20l73 74c6,5 15,5 21,1l82 -65c39,25 83,44 131,54l12 104c1,7 8,13 15,13l104 0c8,0 15,-6 16,-13l12 -104c29,-6 57,-16 84,-29l-85 -82c-25,7 -51,12 -79,12z"/>
  </g>
 </g>
</svg>
