<?xml version="1.0" encoding="UTF-8"?>
<!DOCTYPE svg PUBLIC "-//W3C//DTD SVG 1.1//EN" "http://www.w3.org/Graphics/SVG/1.1/DTD/svg11.dtd">
<!-- Creator: CorelDRAW X8 -->
<svg xmlns="http://www.w3.org/2000/svg" xml:space="preserve" width="65.264mm" height="19.05mm" version="1.1" style="shape-rendering:geometricPrecision; text-rendering:geometricPrecision; image-rendering:optimizeQuality; fill-rule:evenodd; clip-rule:evenodd"
viewBox="0 0 6526 1905"
 xmlns:xlink="http://www.w3.org/1999/xlink">
 <defs>
  <style type="text/css">
   <![CDATA[
    .fil0 {fill:#000}
    .fil3 {fill:#BCBCBC}
    .fil1 {fill:red}
    .fil2 {fill:white;fill-rule:nonzero}
   ]]>
  </style>
 </defs>
 <g id="Слой_x0020_1">
  <metadata id="CorelCorpID_0Corel-Layer"/>
  <g id="_1122541200" class="cancel_stop_rout_button">
   <rect class="fil0" y="4" width="6526" height="1905"/>
   <path class="fil1" d="M766 1160l370 0 0 -371 -370 0 0 371zm185 247c-238,0 -432,-194 -432,-432 0,-239 194,-433 432,-433 239,0 433,194 433,433 0,238 -194,432 -433,432zm349 -782c-192,-193 -505,-193 -698,0 -193,193 -193,506 0,699 193,193 506,193 698,0 193,-193 193,-506 0,-699z"/>
   <path class="fil2" d="M1909 913c0,-59 15,-105 47,-138 31,-33 72,-50 122,-50 33,0 62,8 88,24 26,15 46,37 60,65 14,28 21,59 21,95 0,35 -7,67 -22,96 -14,28 -35,49 -61,64 -27,14 -56,22 -86,22 -34,0 -63,-8 -90,-24 -26,-16 -46,-38 -59,-66 -14,-28 -20,-57 -20,-88zm48 1c0,42 11,76 34,100 23,24 52,37 86,37 36,0 65,-13 87,-37 23,-25 34,-60 34,-106 0,-28 -4,-53 -14,-75 -10,-21 -24,-38 -43,-50 -18,-11 -39,-17 -63,-17 -33,0 -61,11 -85,34 -24,23 -36,60 -36,114zm322 -86l207 0 0 37 -82 0 0 220 -43 0 0 -220 -82 0 0 -37zm250 0l67 0 68 206 75 -206 62 0 0 257 -44 0 0 -207 -75 207 -39 0 -71 -216 0 216 -43 0 0 -257zm513 174l45 6c-7,26 -20,46 -39,61 -19,14 -43,21 -73,21 -38,0 -67,-11 -89,-34 -22,-23 -33,-56 -33,-97 0,-43 11,-77 33,-100 22,-24 51,-36 86,-36 35,0 62,12 84,35 22,23 33,56 33,98 0,3 0,7 -1,12l-191 0c2,28 10,49 24,64 15,15 32,23 54,23 16,0 29,-5 40,-13 12,-8 21,-22 27,-40zm-142 -70l143 0c-2,-21 -8,-38 -17,-48 -13,-17 -31,-25 -53,-25 -20,0 -37,6 -51,20 -13,13 -21,31 -22,53zm242 -104l44 0 0 107 120 0 0 -107 43 0 0 257 -43 0 0 -114 -120 0 0 114 -44 0 0 -257zm440 225c-16,13 -32,23 -46,29 -15,5 -31,8 -48,8 -29,0 -50,-7 -65,-20 -15,-14 -23,-32 -23,-53 0,-12 3,-24 8,-34 6,-11 14,-19 23,-25 9,-6 20,-11 31,-14 9,-3 22,-5 39,-7 35,-4 61,-9 77,-15 1,-6 1,-9 1,-11 0,-18 -4,-30 -13,-37 -11,-10 -27,-15 -49,-15 -21,0 -36,4 -46,11 -9,7 -16,20 -21,38l-43 -6c4,-18 11,-33 19,-44 9,-11 22,-20 39,-26 17,-6 36,-9 58,-9 22,0 40,3 54,8 13,5 24,11 30,19 6,8 11,18 14,30 1,7 2,21 2,40l0 57c0,41 1,66 2,77 2,11 6,21 11,31l-45 0c-5,-9 -8,-20 -9,-32zm-3 -97c-16,7 -40,12 -71,17 -18,2 -31,5 -38,8 -8,4 -14,8 -18,14 -4,7 -6,13 -6,21 0,11 5,21 14,29 8,7 21,11 38,11 17,0 32,-3 45,-11 13,-7 22,-17 28,-30 5,-9 7,-24 7,-43l1 -16z"/>
  </g>
  <g id="_1122543856" class="stop_rout_button">
   <rect class="fil0" y="4" width="6526" height="1905"/>
   <path class="fil3" d="M766 1160l370 0 0 -371 -370 0 0 371zm185 247c-238,0 -432,-194 -432,-432 0,-239 194,-433 432,-433 239,0 433,194 433,433 0,238 -194,432 -433,432zm349 -782c-192,-193 -505,-193 -698,0 -193,193 -193,506 0,699 193,193 506,193 698,0 193,-193 193,-506 0,-699z"/>
   <path class="fil2" d="M1924 731l47 0 0 312 117 0 0 -312 47 0 0 312 117 0 0 -312 47 0 0 354 -375 0 0 -354zm423 97l208 0 0 37 -82 0 0 220 -44 0 0 -220 -82 0 0 -37zm411 225c-16,13 -31,23 -46,29 -15,5 -31,8 -48,8 -29,0 -50,-7 -65,-20 -15,-14 -23,-32 -23,-53 0,-12 3,-24 9,-34 5,-11 13,-19 22,-25 9,-6 20,-11 31,-14 9,-3 22,-5 39,-7 35,-4 61,-9 78,-15 0,-6 0,-9 0,-11 0,-18 -4,-30 -13,-37 -11,-10 -27,-15 -49,-15 -21,0 -36,4 -45,11 -10,7 -17,20 -22,38l-43 -6c4,-18 11,-33 19,-44 9,-11 22,-20 39,-26 17,-6 36,-9 58,-9 22,0 40,3 54,8 13,5 24,11 30,19 6,8 11,18 14,30 1,7 2,21 2,40l0 57c0,41 1,66 2,77 2,11 6,21 11,31l-45 0c-5,-9 -8,-20 -9,-32zm-3 -97c-16,7 -40,12 -71,17 -18,2 -31,5 -38,8 -8,4 -13,8 -18,14 -4,7 -6,13 -6,21 0,11 5,21 14,29 8,7 21,11 38,11 17,0 32,-3 45,-11 13,-7 22,-17 29,-30 4,-9 7,-24 7,-43l0 -16zm77 -128l207 0 0 37 -82 0 0 220 -43 0 0 -220 -82 0 0 -37zm249 0l43 0 0 107 121 0 0 -107 43 0 0 257 -43 0 0 -114 -121 0 0 114 -43 0 0 -257zm516 0l44 0 0 257 -44 0 0 -257zm-242 0l43 0 0 101 55 0c36,0 64,7 83,21 19,13 29,33 29,57 0,22 -8,40 -24,55 -16,15 -42,23 -78,23l-108 0 0 -257zm43 221l46 0c27,0 47,-3 59,-10 12,-7 17,-17 17,-31 0,-12 -4,-21 -13,-30 -8,-9 -27,-13 -57,-13l-52 0 0 84zm311 -221l43 0 0 196 121 -196 46 0 0 257 -43 0 0 -194 -121 194 -46 0 0 -257zm150 -94l29 0c-2,20 -10,36 -22,46 -12,11 -29,17 -49,17 -21,0 -37,-6 -49,-16 -13,-11 -20,-27 -22,-47l29 0c2,11 7,19 14,25 6,5 15,8 27,8 13,0 23,-3 29,-8 7,-6 11,-14 14,-25zm246 223c0,-48 14,-83 40,-106 22,-18 49,-28 81,-28 35,0 63,12 86,35 22,23 33,54 33,95 0,33 -5,59 -14,78 -10,18 -25,33 -44,44 -19,10 -39,15 -61,15 -36,0 -65,-11 -87,-34 -23,-23 -34,-56 -34,-99zm45 0c0,32 7,57 21,73 15,17 33,25 55,25 21,0 39,-8 53,-25 15,-16 22,-41 22,-75 0,-31 -7,-55 -22,-71 -14,-17 -32,-25 -53,-25 -22,0 -40,8 -55,24 -14,17 -21,41 -21,74zm414 34l42 6c-4,29 -16,52 -35,68 -20,17 -43,25 -71,25 -35,0 -63,-11 -85,-34 -21,-23 -32,-56 -32,-98 0,-28 5,-52 14,-73 9,-21 23,-36 42,-46 19,-11 39,-16 61,-16 28,0 51,7 68,21 18,14 29,34 34,60l-42 6c-4,-17 -11,-30 -21,-38 -10,-9 -23,-13 -37,-13 -22,0 -40,7 -54,23 -13,16 -20,40 -20,74 0,35 7,60 20,75 13,16 30,24 51,24 17,0 32,-6 43,-16 11,-10 19,-26 22,-48zm57 -163l207 0 0 37 -82 0 0 220 -43 0 0 -220 -82 0 0 -37zm410 225c-16,13 -31,23 -46,29 -15,5 -31,8 -48,8 -28,0 -50,-7 -65,-20 -15,-14 -23,-32 -23,-53 0,-12 3,-24 9,-34 5,-11 13,-19 22,-25 9,-6 20,-11 31,-14 9,-3 22,-5 39,-7 35,-4 61,-9 78,-15 0,-6 0,-9 0,-11 0,-18 -4,-30 -12,-37 -12,-10 -28,-15 -50,-15 -20,0 -36,4 -45,11 -10,7 -17,20 -22,38l-42 -6c3,-18 10,-33 19,-44 9,-11 21,-20 38,-26 17,-6 36,-9 58,-9 22,0 40,3 54,8 14,5 24,11 30,19 7,8 11,18 14,30 1,7 2,21 2,40l0 57c0,41 1,66 3,77 1,11 5,21 10,31l-45 0c-5,-9 -7,-20 -9,-32zm-3 -97c-16,7 -40,12 -71,17 -18,2 -31,5 -38,8 -8,4 -13,8 -17,14 -4,7 -6,13 -6,21 0,11 4,21 13,29 9,7 21,11 38,11 17,0 32,-3 45,-11 13,-7 23,-17 29,-30 4,-9 7,-24 7,-43l0 -16zm111 -128l43 0 0 107 121 0 0 -107 43 0 0 257 -43 0 0 -114 -121 0 0 114 -43 0 0 -257zm256 129c0,-48 13,-83 40,-106 22,-18 49,-28 80,-28 35,0 64,12 87,35 22,23 33,54 33,95 0,33 -5,59 -15,78 -10,18 -24,33 -43,44 -19,10 -39,15 -62,15 -36,0 -65,-11 -87,-34 -22,-23 -33,-56 -33,-99zm44 0c0,32 8,57 22,73 14,17 32,25 54,25 22,0 40,-8 54,-25 14,-16 22,-41 22,-75 0,-31 -8,-55 -22,-71 -14,-17 -32,-25 -54,-25 -22,0 -40,8 -54,24 -14,17 -22,41 -22,74zm247 -129l100 0c25,0 43,3 55,7 12,4 22,11 31,22 8,11 13,24 13,40 0,12 -3,23 -8,32 -5,9 -13,16 -23,23 12,4 22,11 30,22 8,11 12,24 12,39 -2,24 -10,43 -26,54 -16,12 -39,18 -69,18l-115 0 0 -257zm43 109l47 0c18,0 31,-1 37,-3 7,-2 14,-6 19,-12 5,-6 8,-13 8,-21 0,-14 -5,-23 -14,-28 -10,-6 -26,-8 -49,-8l-48 0 0 72zm0 112l58 0c24,0 41,-3 50,-8 9,-6 14,-16 14,-30 0,-8 -2,-16 -7,-23 -6,-7 -13,-11 -21,-13 -9,-2 -22,-3 -41,-3l-53 0 0 77z"/>
  </g>
 </g>
</svg>
