<?xml version="1.0" encoding="UTF-8"?>
<!DOCTYPE svg PUBLIC "-//W3C//DTD SVG 1.1//EN" "http://www.w3.org/Graphics/SVG/1.1/DTD/svg11.dtd">
<!-- Creator: CorelDRAW X8 -->
<svg xmlns="http://www.w3.org/2000/svg" xml:space="preserve" width="65.264mm" height="19.05mm" version="1.1" style="shape-rendering:geometricPrecision; text-rendering:geometricPrecision; image-rendering:optimizeQuality; fill-rule:evenodd; clip-rule:evenodd"
viewBox="0 0 6526 1905"
 xmlns:xlink="http://www.w3.org/1999/xlink">
 <defs>
  <style type="text/css">
   <![CDATA[
    .fil0 {fill:#000}
    .fil1 {fill:red;fill-rule:nonzero}
    .fil2 {fill:white;fill-rule:nonzero}
   ]]>
  </style>
 </defs>
 <g id="Слой_x0020_1">
  <metadata id="CorelCorpID_0Corel-Layer"/>
  <g id="cancel_extra_stop_rout_button" class="cancel_extra_stop_rout_button">
   <rect class="fil0" x="-5" width="6526" height="1905"/>
   <path class="fil1" d="M1149 692l-203 203 -203 -203 -73 73 203 203 -205 205 75 75 205 -205 203 203 73 -73 -203 -203 203 -203 -75 -75zm-202 711c-239,0 -433,-194 -433,-433 0,-238 194,-432 433,-432 239,0 432,194 432,432 0,239 -193,433 -432,433zm349 -782c-193,-193 -506,-193 -699,0 -193,193 -193,505 0,698 193,193 506,193 699,0 193,-193 193,-505 0,-698z"/>
   <path class="fil2" d="M1705 908c0,-58 16,-104 47,-137 32,-34 73,-50 123,-50 32,0 62,8 88,23 26,16 46,38 60,65 14,28 20,60 20,95 0,36 -7,68 -21,96 -15,29 -35,50 -62,65 -26,14 -55,21 -86,21 -33,0 -63,-8 -89,-24 -26,-16 -46,-38 -60,-66 -13,-27 -20,-57 -20,-88zm49 1c0,43 11,76 34,101 23,24 51,36 86,36 35,0 64,-12 87,-37 23,-24 34,-59 34,-105 0,-29 -5,-54 -15,-75 -9,-22 -23,-38 -42,-50 -19,-12 -40,-18 -63,-18 -33,0 -62,12 -86,34 -24,23 -35,61 -35,114zm321 -85l208 0 0 36 -82 0 0 220 -44 0 0 -220 -82 0 0 -36zm251 0l67 0 67 205 75 -205 63 0 0 256 -44 0 0 -206 -75 206 -39 0 -72 -216 0 216 -42 0 0 -256zm513 173l45 6c-7,26 -20,47 -39,61 -20,15 -44,22 -74,22 -37,0 -67,-12 -89,-35 -21,-23 -32,-55 -32,-97 0,-43 11,-76 33,-100 22,-23 51,-35 86,-35 34,0 62,11 84,35 21,23 32,56 32,98 0,2 0,6 0,11l-191 0c2,28 10,50 24,65 14,15 32,22 53,22 16,0 30,-4 41,-12 11,-9 20,-22 27,-41zm-142 -69l142 0c-2,-22 -7,-38 -16,-49 -14,-16 -32,-25 -54,-25 -20,0 -36,7 -50,20 -14,14 -21,31 -22,54zm242 -104l43 0 0 107 121 0 0 -107 43 0 0 256 -43 0 0 -113 -121 0 0 113 -43 0 0 -256zm440 224c-16,14 -32,24 -47,29 -15,6 -31,9 -48,9 -28,0 -50,-7 -65,-21 -15,-13 -23,-31 -23,-52 0,-13 3,-24 9,-35 6,-10 13,-18 23,-24 9,-7 19,-11 31,-15 8,-2 21,-4 38,-6 36,-4 61,-9 78,-15 0,-6 0,-10 0,-11 0,-18 -4,-30 -12,-38 -11,-9 -28,-14 -50,-14 -20,0 -35,3 -45,10 -10,8 -17,20 -22,39l-42 -6c4,-19 10,-33 19,-44 9,-12 22,-20 39,-26 16,-6 36,-9 58,-9 22,0 40,2 53,7 14,6 24,12 31,20 6,8 10,18 13,29 1,8 2,21 2,40l0 58c0,40 1,66 3,76 2,11 5,22 11,31l-46 0c-4,-9 -7,-19 -8,-32zm-4 -96c-16,6 -39,12 -71,16 -18,3 -30,6 -38,9 -7,3 -13,8 -17,14 -4,6 -6,13 -6,21 0,11 4,21 13,28 9,8 22,12 39,12 16,0 31,-4 44,-11 13,-7 23,-17 29,-30 5,-10 7,-24 7,-43l0 -16z"/>
  </g>
  <g id="extra_stop_rout_button" class="extra_stop_rout_button">
   <rect class="fil0" x="-5" width="6526" height="1905"/>
   <path class="fil1" d="M1149 692l-203 203 -203 -203 -73 73 203 203 -205 205 75 75 205 -205 203 203 73 -73 -203 -203 203 -203 -75 -75zm-202 711c-239,0 -433,-194 -433,-433 0,-238 194,-432 433,-432 239,0 432,194 432,432 0,239 -193,433 -432,433zm349 -782c-193,-193 -506,-193 -699,0 -193,193 -193,506 0,698 193,193 506,193 699,0 193,-192 193,-505 0,-698z"/>
   <path class="fil2" d="M1833 877l0 42 131 0c-1,40 -12,71 -33,94 -20,22 -46,34 -78,34 -56,0 -92,-30 -106,-90l-45 12c21,78 70,117 148,117 56,0 97,-18 125,-54 27,-35 40,-80 38,-132 0,-32 -6,-62 -18,-88 -13,-27 -31,-49 -56,-66 -25,-17 -55,-25 -90,-25 -37,0 -68,9 -92,27 -25,18 -42,43 -50,76l46 11c13,-49 45,-73 96,-73 35,0 62,10 82,31 19,21 30,49 32,84l-130 0zm236 -53l43 0 0 111c14,0 24,-3 29,-8 6,-6 14,-21 25,-47 8,-20 15,-33 20,-40 6,-6 12,-10 19,-13 7,-2 18,-3 33,-3l9 0 0 36 -12 0c-12,0 -19,1 -22,5 -4,3 -9,14 -16,31 -6,17 -12,29 -18,35 -5,7 -14,12 -25,18 18,5 37,22 55,52l48 79 -48 0 -47 -79c-10,-16 -18,-26 -25,-31 -7,-6 -15,-8 -25,-8l0 118 -43 0 0 -256zm389 163l43 6c-5,29 -17,52 -36,68 -19,17 -43,25 -71,25 -35,0 -63,-12 -84,-34 -22,-23 -32,-56 -32,-99 0,-27 4,-52 14,-72 9,-21 23,-36 41,-47 19,-10 39,-15 61,-15 28,0 51,7 69,21 17,14 29,34 34,60l-42 6c-4,-17 -12,-30 -22,-39 -10,-8 -22,-13 -37,-13 -22,0 -40,8 -53,24 -14,15 -21,40 -21,74 0,34 7,59 20,75 13,15 30,23 52,23 17,0 31,-5 42,-15 12,-11 19,-27 22,-48zm57 -163l207 0 0 36 -82 0 0 220 -43 0 0 -220 -82 0 0 -36zm249 355l0 -355 39 0 0 34c10,-13 20,-23 32,-30 12,-6 26,-9 43,-9 21,0 41,5 57,17 17,11 30,27 38,47 9,21 13,43 13,67 0,26 -5,50 -14,71 -9,21 -23,37 -41,48 -18,11 -37,17 -57,17 -14,0 -27,-3 -38,-9 -12,-6 -21,-14 -29,-23l0 125 -43 0zm39 -225c0,33 7,57 20,73 14,15 30,23 49,23 19,0 35,-8 49,-24 14,-16 21,-42 21,-76 0,-32 -7,-57 -21,-73 -13,-16 -29,-24 -48,-24 -18,0 -34,8 -48,26 -15,17 -22,42 -22,75zm410 43l45 6c-7,26 -20,47 -39,61 -19,15 -43,22 -73,22 -38,0 -67,-12 -89,-35 -22,-23 -33,-55 -33,-97 0,-43 11,-76 33,-100 22,-23 51,-35 86,-35 35,0 63,11 84,35 22,23 33,56 33,98 0,2 0,6 -1,11l-190 0c1,28 9,50 23,65 15,15 33,22 54,22 16,0 29,-4 41,-12 11,-9 20,-22 26,-41zm-142 -69l143 0c-2,-22 -8,-38 -17,-49 -13,-16 -31,-25 -53,-25 -20,0 -37,7 -50,20 -14,14 -21,31 -23,54zm242 -104l44 0 0 107 120 0 0 -107 44 0 0 256 -44 0 0 -113 -120 0 0 113 -44 0 0 -256zm273 0l43 0 0 107 121 0 0 -107 43 0 0 256 -43 0 0 -113 -121 0 0 113 -43 0 0 -256zm516 0l44 0 0 256 -44 0 0 -256zm-242 0l43 0 0 100 55 0c36,0 64,7 83,21 19,14 29,33 29,58 0,21 -8,39 -24,55 -16,15 -42,22 -78,22l-108 0 0 -256zm43 221l46 0c27,0 47,-4 59,-10 12,-7 17,-18 17,-32 0,-11 -4,-21 -13,-30 -8,-8 -27,-13 -57,-13l-52 0 0 85zm311 -221l43 0 0 196 121 -196 46 0 0 256 -43 0 0 -194 -121 194 -46 0 0 -256zm150 -95l29 0c-2,21 -9,36 -22,47 -12,11 -29,16 -49,16 -21,0 -37,-5 -49,-16 -13,-11 -20,-26 -22,-47l29 0c2,11 7,20 14,25 6,6 15,8 27,8 13,0 23,-2 29,-8 7,-5 11,-13 14,-25zm246 223c0,-47 14,-82 40,-105 22,-19 49,-28 81,-28 35,0 64,11 86,34 22,23 33,55 33,96 0,33 -5,58 -14,77 -10,19 -25,34 -44,44 -18,11 -39,16 -61,16 -36,0 -65,-12 -87,-35 -23,-23 -34,-56 -34,-99zm45 0c0,33 7,58 21,74 15,16 33,24 55,24 21,0 39,-8 53,-24 15,-17 22,-42 22,-75 0,-32 -7,-56 -22,-72 -14,-16 -32,-24 -53,-24 -22,0 -40,8 -55,24 -14,16 -21,41 -21,73zm414 35l42 6c-4,29 -16,52 -35,68 -20,17 -43,25 -71,25 -35,0 -63,-12 -85,-34 -21,-23 -31,-56 -31,-99 0,-27 4,-52 13,-72 9,-21 23,-36 42,-47 19,-10 39,-15 61,-15 28,0 51,7 68,21 18,14 29,34 34,60l-42 6c-4,-17 -11,-30 -21,-39 -10,-8 -23,-13 -37,-13 -22,0 -40,8 -54,24 -13,15 -20,40 -20,74 0,34 7,59 20,75 13,15 30,23 51,23 17,0 32,-5 43,-15 11,-11 19,-27 22,-48zm57 -163l207 0 0 36 -82 0 0 220 -43 0 0 -220 -82 0 0 -36zm410 224c-16,14 -31,24 -46,29 -15,6 -31,9 -48,9 -28,0 -50,-7 -65,-21 -15,-13 -23,-31 -23,-52 0,-13 3,-24 9,-35 5,-10 13,-18 22,-24 9,-7 20,-11 31,-15 9,-2 22,-4 39,-6 35,-4 61,-9 78,-15 0,-6 0,-10 0,-11 0,-18 -4,-30 -12,-38 -12,-9 -28,-14 -50,-14 -20,0 -36,3 -45,10 -10,8 -17,20 -22,39l-42 -6c3,-19 10,-33 19,-44 9,-12 21,-20 38,-26 17,-6 36,-9 58,-9 22,0 40,2 54,7 14,6 24,12 30,20 7,8 11,18 14,29 1,8 2,21 2,40l0 58c0,40 1,66 3,76 1,11 5,22 10,31l-45 0c-5,-9 -7,-19 -9,-32zm-3 -96c-16,6 -40,12 -71,16 -18,3 -31,6 -38,9 -8,3 -13,8 -17,14 -4,6 -6,13 -6,21 0,11 4,21 13,28 9,8 21,12 38,12 17,0 32,-4 45,-11 13,-7 23,-17 29,-30 4,-10 7,-24 7,-43l0 -16zm111 -128l43 0 0 107 121 0 0 -107 43 0 0 256 -43 0 0 -113 -121 0 0 113 -43 0 0 -256zm256 128c0,-47 13,-82 40,-105 22,-19 49,-28 80,-28 35,0 64,11 87,34 22,23 33,55 33,96 0,33 -5,58 -15,77 -10,19 -24,34 -43,44 -19,11 -39,16 -62,16 -36,0 -65,-12 -87,-35 -22,-23 -33,-56 -33,-99zm45 0c0,33 7,58 21,74 14,16 32,24 54,24 22,0 40,-8 54,-24 14,-17 22,-42 22,-75 0,-32 -8,-56 -22,-72 -14,-16 -32,-24 -54,-24 -22,0 -40,8 -54,24 -14,16 -21,41 -21,73zm246 -128l100 0c25,0 43,2 55,6 12,4 22,12 31,23 8,11 13,24 13,39 0,13 -3,23 -8,32 -5,9 -13,17 -23,23 12,4 22,12 30,23 8,11 12,24 12,39 -2,24 -10,42 -26,54 -16,12 -39,17 -69,17l-115 0 0 -256zm43 108l47 0c18,0 31,-1 37,-3 7,-2 14,-5 19,-11 5,-6 8,-13 8,-22 0,-13 -5,-23 -14,-28 -10,-5 -26,-8 -49,-8l-48 0 0 72zm0 113l58 0c24,0 41,-3 50,-9 9,-5 14,-15 14,-29 0,-8 -2,-16 -7,-23 -6,-7 -13,-12 -21,-13 -9,-2 -22,-3 -41,-3l-53 0 0 77z"/>
  </g>
 </g>
</svg>
