<?xml version="1.0" encoding="UTF-8"?>
<!DOCTYPE svg PUBLIC "-//W3C//DTD SVG 1.1//EN" "http://www.w3.org/Graphics/SVG/1.1/DTD/svg11.dtd">
<!-- Creator: CorelDRAW X8 -->
<svg xmlns="http://www.w3.org/2000/svg" xml:space="preserve" width="65.264mm" height="19.05mm" version="1.1" style="shape-rendering:geometricPrecision; text-rendering:geometricPrecision; image-rendering:optimizeQuality; fill-rule:evenodd; clip-rule:evenodd"
viewBox="0 0 6526 1905"
 xmlns:xlink="http://www.w3.org/1999/xlink">
 <defs>
  <style type="text/css">
   <![CDATA[
    .fil2 {fill:#000}
    .fil0 {fill:red}
    .fil1 {fill:black;fill-rule:nonzero}
    .fil3 {fill:#24FF00;fill-rule:nonzero}
    .fil4 {fill:#85B0FE;fill-rule:nonzero}
    .fil6 {fill:#BCBCBC;fill-rule:nonzero}
    .fil5 {fill:white;fill-rule:nonzero}
   ]]>
  </style>
 </defs>
 <g id="Слой_x0020_1" >
  <metadata id="CorelCorpID_0Corel-Layer"/>
  <g id="ring_flash" class="ring_flash">
   <rect class="fil0" y="-2" width="6526" height="1905"><animate dur="0.5s" from="yellow" to="red" attributeName="fill" repeatCount="indefinite"/></rect>
   <path class="fil1" d="M1904 979l44 -12c3,17 13,34 27,52 15,17 34,25 59,25 24,0 44,-6 58,-19 14,-13 22,-28 22,-46 0,-19 -8,-35 -23,-46 -15,-12 -35,-18 -61,-18l-23 0 0 -41c22,0 38,-1 49,-3 12,-3 22,-9 31,-19 8,-11 13,-22 13,-35 0,-15 -6,-29 -18,-40 -12,-12 -28,-17 -48,-17 -18,0 -33,4 -46,13 -12,9 -21,21 -26,36 -5,14 -7,25 -7,33l-45 -11c11,-75 52,-112 124,-112 34,0 62,9 82,29 20,19 30,41 30,67 0,33 -15,58 -47,76 18,5 34,16 46,31 12,15 18,34 18,55 0,30 -12,56 -35,76 -24,21 -55,31 -94,31 -67,0 -110,-35 -130,-105zm312 -157l100 0c24,0 43,2 55,6 12,4 22,12 30,23 9,11 13,24 13,39 0,12 -2,23 -7,32 -5,9 -13,17 -23,23 12,4 22,12 30,23 8,11 12,24 12,39 -2,24 -11,42 -26,54 -16,11 -39,17 -69,17l-115 0 0 -256zm43 108l46 0c19,0 31,-1 38,-3 7,-2 13,-6 19,-12 5,-5 8,-12 8,-21 0,-13 -5,-23 -14,-28 -10,-5 -26,-8 -49,-8l-48 0 0 72zm0 113l57 0c25,0 42,-3 51,-9 9,-6 14,-15 14,-29 0,-9 -2,-16 -8,-23 -5,-7 -12,-12 -20,-14 -9,-1 -23,-2 -41,-2l-53 0 0 77zm197 -93c0,-47 13,-82 40,-105 22,-19 49,-28 80,-28 36,0 64,11 87,34 22,23 33,55 33,95 0,33 -5,59 -14,78 -10,19 -25,34 -44,44 -19,11 -39,16 -62,16 -35,0 -64,-12 -87,-35 -22,-23 -33,-56 -33,-99zm45 0c0,33 7,57 21,74 15,16 33,24 54,24 22,0 40,-8 54,-24 15,-17 22,-42 22,-75 0,-32 -7,-56 -22,-72 -14,-16 -32,-24 -54,-24 -21,0 -39,8 -54,24 -14,16 -21,41 -21,73zm246 -128l44 0 0 107 120 0 0 -107 44 0 0 256 -44 0 0 -113 -120 0 0 113 -44 0 0 -256zm257 128c0,-47 13,-82 39,-105 22,-19 49,-28 81,-28 35,0 64,11 86,34 23,23 34,55 34,95 0,33 -5,59 -15,78 -10,19 -24,34 -43,44 -19,11 -40,16 -62,16 -36,0 -65,-12 -87,-35 -22,-23 -33,-56 -33,-99zm44 0c0,33 7,57 22,74 14,16 32,24 54,24 21,0 39,-8 54,-24 14,-17 21,-42 21,-75 0,-32 -7,-56 -21,-72 -15,-16 -33,-24 -54,-24 -22,0 -40,8 -54,24 -15,16 -22,41 -22,73zm246 -128l44 0 0 111c13,0 23,-3 29,-8 5,-6 13,-21 24,-47 9,-20 16,-33 21,-40 5,-6 11,-10 18,-13 7,-2 18,-3 34,-3l8 0 0 36 -12 0c-11,0 -18,1 -22,5 -3,3 -8,14 -15,31 -7,17 -13,29 -18,35 -6,6 -14,12 -26,18 19,5 38,22 56,52l47 79 -47 0 -47 -79c-10,-16 -18,-26 -25,-32 -7,-5 -16,-7 -25,-7l0 118 -44 0 0 -256z"/>
   <path class="fil1" d="M951 545c-45,0 -58,26 -58,26 0,0 -117,129 -198,187 -15,9 -31,18 -60,18l-66 0c-42,0 -76,34 -76,77l0 230c0,43 34,77 76,77l66 0c29,0 45,9 60,18 81,58 198,187 198,187 0,0 13,26 58,26 42,0 77,-34 77,-77l0 -692c0,-43 -35,-77 -77,-77zm212 219l-43 64c37,35 61,85 61,140 0,55 -24,105 -61,140l43 65c57,-50 94,-123 94,-205 0,-82 -37,-155 -94,-204zm85 -129l-42 64c78,64 127,160 127,269 0,109 -49,205 -127,269l42 64c99,-78 162,-198 162,-333 0,-135 -63,-255 -162,-333z"/>
  </g>
  <g id="ring_green" class="ring_green">
   <rect class="fil2" y="-2" width="6526" height="1905"/>
   <path class="fil3" d="M951 545c-45,0 -58,26 -58,26 0,0 -117,129 -198,187 -15,9 -31,18 -60,18l-66 0c-42,0 -76,34 -76,77l0 230c0,43 34,77 76,77l66 0c29,0 45,9 60,18 81,58 198,187 198,187 0,0 13,26 58,26 42,0 77,-34 77,-77l0 -692c0,-43 -35,-77 -77,-77zm212 219l-43 64c37,35 61,85 61,140 0,55 -24,105 -61,140l43 65c57,-50 94,-123 94,-205 0,-82 -37,-155 -94,-204zm85 -129l-42 64c78,64 127,160 127,269 0,109 -49,205 -127,269l42 64c99,-77 162,-198 162,-333 0,-135 -63,-255 -162,-333z"/>
   <path class="fil3" d="M1904 979l44 -12c3,17 13,34 27,52 15,17 34,25 59,25 24,0 44,-6 58,-19 14,-13 22,-28 22,-46 0,-19 -8,-35 -23,-46 -15,-12 -35,-18 -61,-18l-23 0 0 -41c22,0 38,-1 49,-3 12,-3 22,-9 31,-19 8,-11 13,-22 13,-35 0,-15 -6,-29 -18,-40 -12,-12 -28,-17 -48,-17 -18,0 -33,4 -46,13 -12,9 -21,21 -26,36 -5,14 -7,26 -7,33l-45 -11c11,-75 52,-112 124,-112 34,0 62,9 82,29 20,19 30,41 30,67 0,33 -15,58 -47,76 18,5 34,16 46,31 12,15 18,34 18,55 0,31 -12,56 -35,76 -24,21 -55,31 -94,31 -67,0 -110,-35 -130,-105zm312 -157l100 0c24,0 43,2 55,6 12,4 22,12 30,23 9,11 13,24 13,39 0,12 -2,23 -7,32 -5,9 -13,17 -23,23 12,4 22,12 30,23 8,11 12,24 12,39 -2,24 -11,42 -26,54 -16,11 -39,17 -69,17l-115 0 0 -256zm43 108l46 0c19,0 31,-1 38,-3 7,-2 13,-6 19,-12 5,-5 8,-12 8,-21 0,-13 -5,-23 -14,-28 -10,-5 -26,-8 -49,-8l-48 0 0 72zm0 113l57 0c25,0 42,-3 51,-9 9,-6 14,-15 14,-29 0,-9 -2,-16 -8,-23 -5,-7 -12,-12 -20,-13 -9,-2 -23,-3 -41,-3l-53 0 0 77zm197 -93c0,-47 13,-82 40,-105 22,-19 49,-28 80,-28 36,0 64,11 87,34 22,23 33,55 33,96 0,32 -5,58 -14,77 -10,19 -25,34 -44,44 -19,11 -39,16 -62,16 -35,0 -64,-12 -87,-35 -22,-23 -33,-56 -33,-99zm45 0c0,33 7,58 21,74 15,16 33,24 54,24 22,0 40,-8 54,-24 15,-17 22,-42 22,-75 0,-32 -7,-56 -22,-72 -14,-16 -32,-24 -54,-24 -21,0 -39,8 -54,24 -14,16 -21,41 -21,73zm246 -128l44 0 0 107 120 0 0 -107 44 0 0 256 -44 0 0 -113 -120 0 0 113 -44 0 0 -256zm257 128c0,-47 13,-82 39,-105 22,-19 49,-28 81,-28 35,0 64,11 86,34 23,23 34,55 34,96 0,32 -5,58 -15,77 -10,19 -24,34 -43,44 -19,11 -40,16 -62,16 -36,0 -65,-12 -87,-35 -22,-23 -33,-56 -33,-99zm44 0c0,33 7,58 22,74 14,16 32,24 54,24 21,0 39,-8 54,-24 14,-17 21,-42 21,-75 0,-32 -7,-56 -21,-72 -15,-16 -33,-24 -54,-24 -22,0 -40,8 -54,24 -15,16 -22,41 -22,73zm246 -128l44 0 0 111c13,0 23,-3 29,-8 5,-6 13,-21 24,-47 9,-20 16,-33 21,-40 5,-6 11,-10 18,-13 7,-2 18,-3 34,-3l8 0 0 36 -12 0c-11,0 -18,1 -22,5 -3,3 -8,14 -15,31 -7,17 -13,29 -18,35 -6,7 -14,12 -26,18 19,5 38,22 56,52l47 79 -47 0 -47 -79c-10,-16 -18,-26 -25,-32 -7,-5 -16,-7 -25,-7l0 118 -44 0 0 -256z"/>
  </g>
  <g id="ring_blue" class="ring_blue">
   <rect class="fil2" y="-2" width="6526" height="1905"/>
   <path class="fil4" d="M951 545c-45,0 -58,26 -58,26 0,0 -117,129 -198,187 -15,9 -31,18 -60,18l-66 0c-42,0 -76,34 -76,77l0 230c0,43 34,77 76,77l66 0c29,0 45,9 60,18 81,58 198,187 198,187 0,0 13,26 58,26 42,0 77,-34 77,-77l0 -692c0,-43 -35,-77 -77,-77zm212 219l-43 64c37,35 61,85 61,140 0,55 -24,105 -61,140l43 65c57,-50 94,-123 94,-205 0,-82 -37,-155 -94,-204zm85 -129l-42 64c78,64 127,160 127,269 0,109 -49,205 -127,269l42 64c99,-77 162,-198 162,-333 0,-135 -63,-255 -162,-333z"/>
   <path class="fil5" d="M1904 979l44 -12c3,17 13,34 27,52 15,17 34,25 59,25 24,0 44,-6 58,-19 14,-13 22,-28 22,-46 0,-19 -8,-35 -23,-46 -15,-12 -35,-18 -61,-18l-23 0 0 -41c22,0 38,-1 49,-3 12,-3 22,-9 31,-19 8,-11 13,-22 13,-35 0,-15 -6,-29 -18,-40 -12,-12 -28,-17 -48,-17 -18,0 -33,4 -46,13 -12,9 -21,21 -26,36 -5,14 -7,26 -7,33l-45 -11c11,-75 52,-112 124,-112 34,0 62,9 82,29 20,19 30,41 30,67 0,33 -15,58 -47,76 18,5 34,16 46,31 12,15 18,34 18,55 0,31 -12,56 -35,76 -24,21 -55,31 -94,31 -67,0 -110,-35 -130,-105zm312 -157l100 0c24,0 43,2 55,6 12,4 22,12 30,23 9,11 13,24 13,39 0,12 -2,23 -7,32 -5,9 -13,17 -23,23 12,4 22,12 30,23 8,11 12,24 12,39 -2,24 -11,42 -26,54 -16,11 -39,17 -69,17l-115 0 0 -256zm43 108l46 0c19,0 31,-1 38,-3 7,-2 13,-6 19,-12 5,-5 8,-12 8,-21 0,-13 -5,-23 -14,-28 -10,-5 -26,-8 -49,-8l-48 0 0 72zm0 113l57 0c25,0 42,-3 51,-9 9,-6 14,-15 14,-29 0,-9 -2,-16 -8,-23 -5,-7 -12,-12 -20,-13 -9,-2 -23,-3 -41,-3l-53 0 0 77zm197 -93c0,-47 13,-82 40,-105 22,-19 49,-28 80,-28 36,0 64,11 87,34 22,23 33,55 33,96 0,32 -5,58 -14,77 -10,19 -25,34 -44,44 -19,11 -39,16 -62,16 -35,0 -64,-12 -87,-35 -22,-23 -33,-56 -33,-99zm45 0c0,33 7,58 21,74 15,16 33,24 54,24 22,0 40,-8 54,-24 15,-17 22,-42 22,-75 0,-32 -7,-56 -22,-72 -14,-16 -32,-24 -54,-24 -21,0 -39,8 -54,24 -14,16 -21,41 -21,73zm246 -128l44 0 0 107 120 0 0 -107 44 0 0 256 -44 0 0 -113 -120 0 0 113 -44 0 0 -256zm257 128c0,-47 13,-82 39,-105 22,-19 49,-28 81,-28 35,0 64,11 86,34 23,23 34,55 34,96 0,32 -5,58 -15,77 -10,19 -24,34 -43,44 -19,11 -40,16 -62,16 -36,0 -65,-12 -87,-35 -22,-23 -33,-56 -33,-99zm44 0c0,33 7,58 22,74 14,16 32,24 54,24 21,0 39,-8 54,-24 14,-17 21,-42 21,-75 0,-32 -7,-56 -21,-72 -15,-16 -33,-24 -54,-24 -22,0 -40,8 -54,24 -15,16 -22,41 -22,73zm246 -128l44 0 0 111c13,0 23,-3 29,-8 5,-6 13,-21 24,-47 9,-20 16,-33 21,-40 5,-6 11,-10 18,-13 7,-2 18,-3 34,-3l8 0 0 36 -12 0c-11,0 -18,1 -22,5 -3,3 -8,14 -15,31 -7,17 -13,29 -18,35 -6,7 -14,12 -26,18 19,5 38,22 56,52l47 79 -47 0 -47 -79c-10,-16 -18,-26 -25,-32 -7,-5 -16,-7 -25,-7l0 118 -44 0 0 -256z"/>
  </g>
  <g id="ring_grey" class="ring_grey">
   <rect class="fil2" y="-2" width="6526" height="1905"/>
   <path class="fil6" d="M951 545c-45,0 -58,26 -58,26 0,0 -117,129 -198,187 -15,9 -31,18 -60,18l-66 0c-42,0 -76,34 -76,77l0 230c0,43 34,77 76,77l66 0c29,0 45,9 60,18 81,58 198,187 198,187 0,0 13,26 58,26 42,0 77,-34 77,-77l0 -692c0,-43 -35,-77 -77,-77zm212 219l-43 64c37,35 61,85 61,140 0,55 -24,105 -61,140l43 65c57,-50 94,-123 94,-205 0,-82 -37,-155 -94,-204zm85 -129l-42 64c78,64 127,160 127,269 0,109 -49,205 -127,269l42 64c99,-78 162,-198 162,-333 0,-135 -63,-255 -162,-333z"/>
   <path class="fil5" d="M1904 979l44 -12c3,17 13,34 27,52 15,17 34,25 59,25 24,0 44,-6 58,-19 14,-13 22,-28 22,-46 0,-19 -8,-35 -23,-46 -15,-12 -35,-18 -61,-18l-23 0 0 -41c22,0 38,-1 49,-3 12,-3 22,-9 31,-19 8,-11 13,-22 13,-35 0,-15 -6,-29 -18,-40 -12,-12 -28,-17 -48,-17 -18,0 -33,4 -46,13 -12,9 -21,21 -26,36 -5,14 -7,25 -7,33l-45 -11c11,-75 52,-112 124,-112 34,0 62,9 82,29 20,19 30,41 30,67 0,33 -15,58 -47,76 18,5 34,16 46,31 12,15 18,34 18,55 0,30 -12,56 -35,76 -24,21 -55,31 -94,31 -67,0 -110,-35 -130,-105zm312 -157l100 0c24,0 43,2 55,6 12,4 22,12 30,23 9,11 13,24 13,39 0,12 -2,23 -7,32 -5,9 -13,17 -23,23 12,4 22,12 30,23 8,11 12,24 12,39 -2,24 -11,42 -26,54 -16,11 -39,17 -69,17l-115 0 0 -256zm43 108l46 0c19,0 31,-1 38,-3 7,-2 13,-6 19,-12 5,-5 8,-12 8,-21 0,-13 -5,-23 -14,-28 -10,-5 -26,-8 -49,-8l-48 0 0 72zm0 113l57 0c25,0 42,-3 51,-9 9,-6 14,-15 14,-29 0,-9 -2,-16 -8,-23 -5,-7 -12,-12 -20,-14 -9,-1 -23,-2 -41,-2l-53 0 0 77zm197 -93c0,-47 13,-82 40,-105 22,-19 49,-28 80,-28 36,0 64,11 87,34 22,23 33,55 33,95 0,33 -5,59 -14,78 -10,19 -25,34 -44,44 -19,11 -39,16 -62,16 -35,0 -64,-12 -87,-35 -22,-23 -33,-56 -33,-99zm45 0c0,33 7,57 21,74 15,16 33,24 54,24 22,0 40,-8 54,-24 15,-17 22,-42 22,-75 0,-32 -7,-56 -22,-72 -14,-16 -32,-24 -54,-24 -21,0 -39,8 -54,24 -14,16 -21,41 -21,73zm246 -128l44 0 0 107 120 0 0 -107 44 0 0 256 -44 0 0 -113 -120 0 0 113 -44 0 0 -256zm257 128c0,-47 13,-82 39,-105 22,-19 49,-28 81,-28 35,0 64,11 86,34 23,23 34,55 34,95 0,33 -5,59 -15,78 -10,19 -24,34 -43,44 -19,11 -40,16 -62,16 -36,0 -65,-12 -87,-35 -22,-23 -33,-56 -33,-99zm44 0c0,33 7,57 22,74 14,16 32,24 54,24 21,0 39,-8 54,-24 14,-17 21,-42 21,-75 0,-32 -7,-56 -21,-72 -15,-16 -33,-24 -54,-24 -22,0 -40,8 -54,24 -15,16 -22,41 -22,73zm246 -128l44 0 0 111c13,0 23,-3 29,-8 5,-6 13,-21 24,-47 9,-20 16,-33 21,-40 5,-6 11,-10 18,-13 7,-2 18,-3 34,-3l8 0 0 36 -12 0c-11,0 -18,1 -22,5 -3,3 -8,14 -15,31 -7,17 -13,29 -18,35 -6,6 -14,12 -26,18 19,5 38,22 56,52l47 79 -47 0 -47 -79c-10,-16 -18,-26 -25,-32 -7,-5 -16,-7 -25,-7l0 118 -44 0 0 -256z"/>
  </g>
 </g>
</svg>
